<?xml version="1.0" standalone="no"?>
<!DOCTYPE svg PUBLIC "-//W3C//DTD SVG 20010904//EN"
 "http://www.w3.org/TR/2001/REC-SVG-20010904/DTD/svg10.dtd">
<svg version="1.0" xmlns="http://www.w3.org/2000/svg"
 width="749.000000pt" height="586.000000pt" viewBox="0 0 749.000000 586.000000"
 preserveAspectRatio="xMidYMid meet">

<g transform="translate(0.000000,586.000000) scale(0.100000,-0.100000)"
fill="#000000" stroke="none">
<path d="M2704 5733 c-21 -16 -20 -39 4 -66 8 -9 12 -20 8 -25 -5 -4 -28 16
-52 43 -24 28 -44 46 -44 42 0 -5 7 -15 15 -23 8 -9 15 -20 15 -27 0 -6 -7 -2
-15 9 -8 10 -15 14 -15 7 0 -21 12 -43 25 -43 7 0 15 -7 19 -15 3 -8 12 -15
21 -15 8 0 15 -7 15 -15 0 -17 39 -85 41 -70 1 6 2 15 4 20 1 6 3 17 3 26 1 9
14 21 28 27 14 7 23 8 20 3 -3 -5 1 -11 9 -15 8 -3 17 -1 20 4 3 4 -1 11 -7
13 -8 4 -7 6 4 6 20 1 37 -21 20 -27 -6 -2 -9 -9 -6 -17 4 -9 0 -12 -13 -9
-14 4 -22 -3 -31 -29 -17 -49 -16 -55 26 -95 44 -44 72 -79 55 -68 -9 5 -11 2
-7 -8 4 -11 12 -13 30 -6 23 9 24 7 24 -25 0 -20 5 -35 11 -35 7 0 18 -8 26
-17 12 -16 13 -15 6 12 -3 16 -12 36 -20 43 -7 7 -13 20 -13 28 0 8 -4 14 -10
14 -15 0 -12 41 5 73 8 15 10 25 5 22 -10 -6 -11 -4 -16 54 -1 18 -6 45 -10
60 -4 14 -7 29 -6 32 1 4 -12 21 -27 38 -18 21 -27 39 -24 52 8 29 -12 23 -27
-8 -13 -27 -14 -27 -18 -6 -2 15 -8 20 -19 16 -12 -5 -15 -2 -10 10 3 9 3 17
-1 18 -4 0 -17 2 -28 3 -12 1 -30 -4 -40 -11z"/>
<path d="M2634 5614 c4 -15 14 -34 23 -42 9 -9 24 -35 34 -57 10 -22 19 -34
19 -26 0 8 -13 38 -30 68 -16 29 -30 60 -30 68 0 8 -5 15 -11 15 -7 0 -9 -10
-5 -26z"/>
<path d="M2772 5583 c-13 -26 -36 -132 -30 -138 3 -3 14 30 26 72 20 78 22
101 4 66z"/>
<path d="M3927 5508 c-14 -15 -21 -28 -16 -28 6 0 7 -5 4 -10 -4 -6 -10 -8
-15 -5 -4 3 -10 -2 -14 -10 -6 -17 5 -20 20 -5 6 6 21 6 42 1 20 -6 30 -6 27
0 -4 5 -13 9 -21 9 -8 0 -14 5 -14 11 0 6 9 8 23 3 12 -4 29 -7 37 -8 8 -1 21
-8 28 -16 12 -13 13 -13 8 3 -3 9 -1 17 4 17 6 0 10 -4 10 -8 0 -5 18 -16 40
-26 47 -21 64 -47 62 -98 -1 -26 2 -38 12 -38 7 0 19 -7 26 -15 11 -13 10 -14
-5 -9 -15 6 -16 4 -6 -14 7 -13 7 -23 1 -27 -5 -3 -12 6 -16 20 -4 16 -13 25
-25 25 -10 0 -19 5 -19 10 0 6 5 10 10 10 17 0 11 38 -7 45 -17 6 -17 7 1 21
25 18 18 24 -41 39 -27 7 -57 17 -68 21 -18 7 -19 6 -5 -8 16 -15 59 -34 72
-30 3 1 8 -4 11 -11 4 -10 -3 -12 -24 -9 -23 3 -28 1 -23 -11 3 -9 14 -19 25
-22 26 -9 24 -24 -2 -18 -19 5 -20 4 -9 -16 8 -16 10 -62 5 -164 -4 -78 -9
-145 -11 -149 -12 -20 15 -5 40 21 18 18 27 37 24 48 -5 20 1 28 46 57 24 15
28 23 23 51 -4 25 -2 33 7 29 18 -7 29 25 15 43 -7 7 -9 16 -5 20 3 3 6 0 6
-7 0 -7 2 -11 5 -8 3 3 1 17 -4 30 -7 18 -6 29 2 37 6 6 8 12 4 12 -4 1 -11 3
-17 4 -5 1 -17 3 -25 4 -8 0 -12 7 -9 15 3 8 12 12 21 9 13 -5 13 -3 2 15 -7
11 -18 18 -24 14 -5 -3 -4 2 4 11 11 14 11 20 1 32 -7 8 -16 12 -21 9 -24 -15
-65 24 -60 58 0 4 -11 16 -26 28 -39 31 -104 25 -136 -12z m179 -365 c-7 -7
-26 7 -26 19 0 6 6 6 15 -2 9 -7 13 -15 11 -17z"/>
<path d="M3781 5461 c-12 -16 -21 -34 -21 -41 0 -15 59 31 59 47 2 25 -18 22
-38 -6z"/>
<path d="M3840 5481 c0 -6 4 -13 10 -16 6 -3 7 1 4 9 -7 18 -14 21 -14 7z"/>
<path d="M3845 5440 c-3 -5 -1 -10 4 -10 6 0 11 5 11 10 0 6 -2 10 -4 10 -3 0
-8 -4 -11 -10z"/>
<path d="M2720 5411 c0 -11 -3 -27 -6 -36 -5 -12 -2 -16 11 -13 14 2 23 -12
41 -62 13 -36 23 -58 24 -49 0 8 -11 43 -24 78 -14 34 -23 68 -20 75 3 7 -2
16 -10 19 -11 5 -16 0 -16 -12z"/>
<path d="M4585 5340 c9 -107 33 -298 38 -307 3 -5 7 -47 8 -92 3 -82 3 -83 21
-61 22 27 22 25 -2 185 -36 245 -42 280 -56 305 -13 23 -13 21 -9 -30z"/>
<path d="M3899 5358 c-10 -19 0 -37 22 -38 7 0 19 25 19 40 0 19 -30 18 -41
-2z"/>
<path d="M3967 5358 c-3 -8 4 -20 15 -27 28 -18 36 -4 11 20 -16 16 -21 18
-26 7z"/>
<path d="M3825 5338 c4 -41 6 -43 15 -26 10 17 4 48 -10 48 -4 0 -6 -10 -5
-22z"/>
<path d="M3745 5330 c3 -5 8 -10 11 -10 2 0 4 5 4 10 0 6 -5 10 -11 10 -5 0
-7 -4 -4 -10z"/>
<path d="M2970 5306 c0 -8 4 -18 10 -21 6 -4 5 -11 -3 -19 -6 -8 -15 -12 -19
-9 -5 2 -8 -2 -8 -9 0 -9 -3 -9 -10 2 -12 18 -12 2 0 -25 5 -11 9 -14 9 -7 1
6 5 12 10 12 12 0 33 -88 25 -102 -4 -7 -3 -8 4 -4 8 4 12 0 12 -11 1 -31 45
-93 91 -125 24 -18 61 -47 82 -66 21 -18 45 -31 52 -28 7 2 21 -2 32 -9 10 -8
14 -15 9 -15 -4 0 2 -9 15 -19 13 -11 27 -17 32 -14 4 2 23 37 43 76 19 40 29
64 21 55 -8 -10 -17 -15 -20 -11 -4 3 -7 1 -7 -5 0 -15 -31 -4 -47 16 -7 9
-13 12 -13 8 0 -4 -7 0 -16 8 -18 19 -74 21 -74 4 0 -8 -4 -8 -13 2 -18 20
-39 94 -32 113 4 9 -2 16 -15 20 -12 3 -24 15 -27 26 -3 12 -14 21 -23 21 -10
0 -22 9 -25 20 -3 11 -12 20 -18 20 -19 1 -59 38 -52 49 8 13 -5 61 -16 61 -5
0 -9 -6 -9 -14z m225 -346 c-3 -5 -12 -10 -18 -10 -7 0 -6 4 3 10 19 12 23 12
15 0z"/>
<path d="M3720 5304 c0 -8 4 -12 10 -9 6 4 7 -6 3 -26 -4 -21 -3 -30 4 -26 17
10 21 52 7 65 -18 16 -24 15 -24 -4z"/>
<path d="M3847 5283 c-16 -16 -4 -28 27 -28 32 0 34 1 19 18 -17 18 -35 22
-46 10z"/>
<path d="M3857 5233 c-3 -5 10 -8 29 -9 21 0 30 3 22 8 -16 10 -45 10 -51 1z"/>
<path d="M2791 5214 c-1 -21 19 -88 24 -82 2 2 -3 26 -10 53 -8 28 -14 41 -14
29z"/>
<path d="M2520 5207 c0 -7 -15 -18 -33 -25 -33 -12 -34 -14 -33 -67 0 -30 4
-55 9 -55 4 0 6 -4 3 -9 -8 -12 26 -40 62 -51 39 -11 93 3 128 33 27 23 47
107 26 107 -6 0 -19 14 -29 30 -24 41 -133 71 -133 37z m107 -23 c-3 -3 -12
-4 -19 -1 -8 3 -5 6 6 6 11 1 17 -2 13 -5z"/>
<path d="M3727 5196 c-10 -8 -15 -20 -11 -30 9 -24 21 -19 33 14 11 33 6 37
-22 16z"/>
<path d="M3858 5203 c6 -2 18 -2 25 0 6 3 1 5 -13 5 -14 0 -19 -2 -12 -5z"/>
<path d="M3753 5150 c-10 -26 -9 -32 7 -40 23 -12 31 -3 24 29 -10 40 -19 43
-31 11z"/>
<path d="M3862 5167 c-5 -7 -15 -22 -21 -34 -15 -29 1 -63 29 -63 11 0 24 -9
30 -20 15 -28 23 -25 62 15 18 20 38 33 45 30 20 -7 15 33 -6 57 -14 14 -28
19 -47 15 -15 -2 -39 -1 -55 3 -18 6 -31 4 -37 -3z"/>
<path d="M2810 5116 c0 -11 30 -66 36 -66 2 0 -3 15 -12 33 -19 36 -24 44 -24
33z"/>
<path d="M3743 5082 c10 -10 17 -24 17 -30 0 -17 11 -15 26 6 9 11 13 13 14 4
0 -7 5 -10 10 -7 8 5 7 11 -1 21 -9 11 -14 12 -20 3 -5 -9 -11 -8 -24 4 -22
23 -42 22 -22 -1z"/>
<path d="M3790 5026 c0 -8 5 -18 12 -22 7 -5 9 -2 5 9 -3 9 -1 18 6 21 7 2 4
5 -5 5 -10 1 -18 -5 -18 -13z"/>
<path d="M3452 5010 c-14 -6 -20 -14 -16 -22 5 -8 2 -9 -9 -5 -11 4 -18 -1
-22 -14 -8 -25 2 -38 11 -15 5 13 9 14 20 5 11 -9 14 -8 14 4 0 16 37 43 46
34 2 -2 -3 -21 -11 -43 -9 -21 -13 -28 -11 -15 9 43 -18 5 -36 -52 l-16 -52
-1 38 c-1 46 -21 40 -21 -6 0 -18 -13 -59 -29 -92 -16 -33 -27 -64 -24 -69 4
-5 1 -6 -6 -2 -6 4 -18 0 -27 -8 -9 -9 -19 -14 -23 -11 -5 2 -14 -7 -22 -21
-12 -23 -11 -30 11 -71 26 -49 92 -123 109 -123 6 0 11 9 11 20 0 13 9 22 25
26 28 7 67 66 70 108 2 15 10 35 19 44 14 14 17 14 36 -3 20 -18 20 -18 20 28
0 25 4 48 8 51 5 3 7 19 4 35 -2 16 3 44 12 62 20 40 13 50 -14 18 -17 -19
-23 -21 -30 -9 -5 9 -5 17 1 21 6 3 4 11 -6 19 -10 8 -15 9 -15 2 0 -6 -7 -9
-16 -5 -13 5 -15 18 -12 67 3 66 -4 74 -50 56z m115 -212 c-2 -22 -7 -32 -20
-34 -14 -2 -17 2 -12 14 4 9 10 25 12 35 9 28 21 19 20 -15z"/>
<path d="M3903 5013 c-7 -2 -13 -13 -13 -24 0 -14 7 -19 29 -19 31 0 46 21 28
39 -12 12 -24 13 -44 4z"/>
<path d="M3908 4946 c-10 -7 -18 -16 -18 -20 0 -14 38 -5 60 14 16 14 18 20 9
20 -8 0 -21 -6 -28 -12 -11 -10 -13 -10 -7 0 9 15 6 15 -16 -2z"/>
<path d="M4050 4933 c0 -17 16 -30 43 -37 30 -7 36 4 12 24 -8 7 -15 9 -15 4
0 -4 -5 -3 -12 4 -13 13 -28 16 -28 5z"/>
<path d="M1200 4905 c-13 -16 2 -43 180 -325 141 -222 618 -980 705 -1120 52
-83 167 -266 475 -755 100 -159 223 -354 272 -433 l89 -143 -103 -116 c-164
-186 -166 -189 -161 -217 10 -49 29 -51 68 -7 21 23 42 38 48 34 6 -3 7 -1 3
6 -5 7 12 33 43 66 28 29 49 60 48 67 -2 7 -2 9 1 5 2 -5 26 12 52 38 l47 46
18 -27 c14 -22 15 -26 2 -21 -9 3 -24 -5 -38 -19 -12 -13 -18 -24 -12 -24 6 0
13 5 15 12 3 7 7 4 12 -7 4 -11 4 -16 0 -12 -4 4 -16 -1 -27 -10 -11 -10 -17
-12 -13 -6 4 7 3 13 -2 13 -14 0 -35 -28 -28 -38 7 -12 -28 -45 -37 -35 -4 3
-7 -1 -7 -11 0 -13 -4 -15 -19 -7 -16 9 -20 7 -25 -13 -3 -13 -31 -47 -61 -74
-30 -28 -55 -53 -55 -56 0 -3 23 -12 50 -20 28 -8 63 -24 78 -34 l27 -20 120
114 c99 93 121 110 129 97 10 -18 14 -13 -157 -167 -50 -46 -83 -82 -77 -86 6
-4 8 -13 5 -21 -3 -8 23 12 58 46 35 33 94 87 131 120 l68 59 19 -24 c25 -34
24 -45 -8 -70 -31 -23 -101 -83 -148 -125 -16 -14 -23 -23 -13 -18 20 10 71
51 141 115 l52 48 20 -25 c11 -13 56 -83 99 -156 75 -125 79 -134 81 -195 2
-64 -9 -90 -26 -63 -7 11 -9 10 -9 -3 0 -10 7 -18 16 -18 10 0 14 -6 11 -15
-4 -8 -2 -17 3 -20 5 -3 7 -19 3 -35 -7 -36 16 -49 52 -30 14 8 39 10 60 7 21
-3 33 -2 30 4 -4 5 -13 9 -21 9 -17 0 -15 21 1 22 16 2 145 -210 132 -216 -7
-2 -5 -5 5 -5 9 -1 31 -25 49 -53 17 -29 38 -63 46 -75 15 -22 14 -22 -34 -16
-26 3 -46 3 -43 0 4 -4 64 -15 91 -17 4 0 10 -7 13 -16 6 -17 -4 -16 -48 2
-15 6 -17 4 -11 -7 6 -11 5 -12 -6 -1 -20 19 -49 15 -49 -7 0 -21 -19 -22 -43
-3 -8 7 -21 11 -28 10 -8 -2 -13 3 -12 10 4 17 -12 15 -27 -3 -9 -11 -17 -12
-31 -4 -11 5 -25 7 -31 3 -6 -4 -8 -3 -5 3 4 6 -4 11 -18 11 -14 0 -28 -4 -31
-9 -3 -5 0 -9 7 -9 7 0 4 -7 -7 -15 -22 -17 -38 -20 -29 -5 6 10 -40 26 -65
22 -11 -2 -10 1 3 12 17 13 16 14 -17 12 -20 -2 -40 -6 -43 -10 -10 -10 -11
-46 -1 -46 4 0 8 -5 8 -11 0 -8 -5 -7 -15 1 -9 7 -14 19 -11 27 3 7 2 13 -3
13 -5 0 -7 14 -5 30 4 31 -9 40 -23 17 -4 -8 -17 -19 -28 -26 -19 -12 -19 -12
2 -8 23 5 36 -13 27 -38 -7 -17 -34 -21 -34 -5 0 5 3 9 8 7 4 -1 8 3 9 8 3 12
-58 10 -66 -3 -3 -5 -17 -13 -30 -17 -21 -6 -20 -3 10 24 19 17 28 31 22 31
-7 0 -13 -4 -13 -10 0 -5 -16 -12 -36 -16 -24 -4 -32 -9 -23 -15 16 -9 12 -14
-18 -23 -12 -4 -24 -2 -28 5 -6 8 -9 8 -15 -1 -4 -7 -13 -9 -20 -5 -10 6 -9
11 5 21 10 8 16 17 12 20 -4 4 -13 2 -20 -4 -8 -7 -18 -8 -22 -4 -5 4 -5 2 -1
-5 9 -16 -24 -33 -65 -33 -27 0 -30 2 -19 15 7 9 10 18 7 21 -3 3 -13 -6 -22
-20 -19 -28 -69 -38 -59 -12 10 25 -13 26 -26 1 -7 -13 -25 -26 -39 -29 -14
-2 6 -2 44 0 39 3 84 7 100 10 33 6 24 -11 -10 -19 -16 -4 -14 -5 6 -6 15 0
29 -7 32 -15 8 -21 1 -70 -12 -74 -6 -2 -21 -13 -33 -24 -21 -18 -21 -18 14 2
l37 21 -2 -28 c-2 -22 3 -29 22 -31 15 -3 21 0 16 8 -4 6 -13 9 -21 6 -8 -3
-11 0 -8 9 3 8 13 11 22 8 11 -5 14 -2 10 8 -3 8 0 23 8 34 8 10 14 13 14 6 0
-7 5 -9 10 -6 16 10 1 25 -26 25 -18 0 -24 5 -24 23 0 12 5 29 11 37 9 12 10
12 5 -4 -5 -14 3 -28 29 -52 31 -28 35 -36 25 -53 -8 -16 -8 -21 1 -21 8 0 8
-4 -1 -15 -7 -8 -8 -15 -3 -15 18 0 53 58 46 77 -6 16 -5 17 11 3 16 -13 20
-12 31 3 16 22 22 21 28 -1 3 -11 5 -8 6 9 0 14 10 34 21 44 22 20 26 14 9
-17 -15 -27 3 -47 26 -28 14 11 18 11 25 1 5 -9 13 -10 25 -4 15 9 16 11 1 16
-9 4 -16 11 -16 16 0 12 27 22 45 15 11 -5 12 -10 4 -26 -6 -11 -8 -22 -6 -25
8 -7 48 37 42 46 -3 5 4 7 15 4 11 -3 17 -9 14 -14 -3 -5 2 -9 10 -9 10 0 16
-9 17 -22 0 -22 1 -22 10 2 8 20 12 22 19 10 5 -8 10 -10 10 -4 0 6 10 10 23
8 12 -1 25 -3 30 -3 4 -1 7 -7 7 -15 0 -8 4 -17 9 -20 5 -4 7 4 3 16 -5 21 -4
22 12 9 9 -8 19 -11 23 -7 3 3 0 6 -8 7 -32 1 30 16 76 18 36 1 46 -1 35 -9
-16 -10 -13 -11 31 -14 21 -2 25 2 21 17 -4 14 -1 18 9 15 8 -3 13 -11 12 -17
-3 -11 12 -14 57 -12 14 1 36 -2 49 -7 21 -8 20 -9 -18 -22 -46 -15 -47 -16
-27 -36 19 -19 27 -18 19 3 -5 13 -2 15 11 10 9 -4 15 -3 12 1 -3 5 11 15 30
24 28 13 34 13 34 2 0 -8 6 -14 13 -14 7 0 4 -7 -7 -15 -11 -8 -14 -15 -8 -15
7 0 12 -5 12 -11 0 -8 -5 -7 -15 1 -9 7 -14 19 -11 27 8 20 -12 15 -24 -6 -14
-27 -13 -34 6 -27 9 3 12 2 9 -5 -8 -12 14 -41 26 -34 4 3 13 -4 19 -15 6 -11
15 -18 20 -15 5 3 22 -12 37 -34 16 -22 32 -40 37 -41 5 0 2 8 -6 18 -20 23
-30 52 -17 52 6 0 3 7 -5 16 -9 8 -16 21 -16 29 0 7 -7 16 -16 19 -8 3 -12 11
-8 17 9 15 64 -70 56 -89 -3 -10 -1 -13 6 -8 14 8 54 -52 45 -68 -3 -6 -3 -8
2 -4 4 4 30 -27 56 -69 26 -43 45 -80 42 -83 -3 -3 -8 1 -10 7 -3 9 -10 10
-24 3 -15 -8 -17 -7 -13 5 3 8 10 12 15 9 5 -3 9 0 9 5 0 16 -8 14 -42 -11
l-30 -21 11 21 c7 12 16 22 21 22 6 0 10 5 10 12 0 6 -8 4 -19 -6 -15 -14 -24
-15 -40 -7 -24 13 -34 14 -27 2 7 -11 -22 -36 -31 -27 -4 4 -1 11 7 16 13 8
12 10 -2 10 -9 0 -18 -6 -20 -12 -3 -8 -27 -13 -71 -13 -64 0 -66 1 -60 22 3
14 1 23 -6 23 -6 0 -11 -9 -11 -21 0 -17 -4 -19 -22 -13 -13 4 -31 7 -40 6
-10 0 -18 6 -18 14 0 13 -2 13 -16 0 -8 -9 -19 -14 -24 -11 -5 3 -11 1 -15 -5
-4 -6 9 -10 32 -11 l38 -1 -35 -9 c-27 -6 -38 -4 -46 7 -10 12 -13 12 -24 -1
-9 -11 -16 -12 -26 -4 -7 6 -17 8 -23 5 -5 -3 -11 0 -14 8 -4 9 -27 14 -77 15
-40 1 -77 4 -83 8 -6 4 -8 -2 -5 -15 4 -12 2 -22 -2 -22 -5 0 -11 10 -13 23
l-4 22 -2 -22 c-1 -27 -18 -30 -24 -6 -4 17 -5 17 -6 0 -1 -17 -18 -17 -69 -1
-8 2 -19 1 -25 -3 -5 -3 -23 -7 -39 -8 -23 -2 -26 0 -17 11 9 11 8 14 -3 14
-8 0 -18 -3 -22 -7 -4 -4 -34 -9 -67 -10 -56 -2 -60 -1 -54 17 5 15 3 18 -9
14 -9 -3 -16 -11 -16 -18 0 -6 -12 -13 -26 -14 -23 -2 -25 0 -14 14 11 13 10
19 -8 37 -19 19 -22 19 -22 4 0 -9 5 -17 10 -17 6 0 10 -4 10 -10 0 -5 -7 -10
-16 -10 -14 0 -15 -2 -3 -17 13 -15 11 -16 -11 -10 -45 10 -125 21 -139 18 -9
-2 -12 3 -7 15 5 14 4 15 -9 4 -12 -10 -15 -10 -15 1 0 10 -3 11 -8 3 -5 -9
-23 -9 -62 -3 -30 5 -116 18 -190 29 -75 11 -147 23 -160 26 -14 3 -47 7 -75
10 -62 6 -41 -11 26 -20 25 -4 57 -9 70 -11 134 -23 460 -76 494 -81 11 -2
279 -8 595 -14 710 -14 691 -12 714 -51 22 -36 48 -37 76 -1 20 25 28 27 91
27 38 1 69 -2 69 -5 0 -3 53 -5 118 -4 64 0 127 -3 139 -7 14 -5 23 -4 26 4 3
9 7 9 19 0 8 -7 17 -10 20 -7 3 3 178 7 389 10 355 4 384 6 381 22 -1 9 -8 81
-16 160 -7 78 -16 145 -19 148 -3 3 -36 8 -74 10 -37 2 -88 7 -113 10 -25 4
-79 7 -120 7 -86 1 -106 14 -116 79 -8 46 -14 51 -48 38 -17 -6 -27 -6 -32 1
-3 6 -15 9 -25 6 -11 -3 -19 -1 -19 4 0 5 21 9 47 9 25 0 44 2 41 5 -5 6 -153
22 -278 31 -47 4 -86 8 -88 9 -9 8 65 103 76 100 7 -3 50 -8 95 -11 76 -7 81
-6 68 9 -15 19 -26 23 -15 5 5 -7 3 -8 -7 -2 -8 5 -32 10 -54 12 -22 2 -50 4
-61 5 -13 1 -20 7 -16 15 4 10 17 12 50 7 24 -4 50 -9 58 -12 10 -4 12 10 8
63 -3 37 -7 71 -10 76 -8 12 6 34 209 327 105 152 229 332 277 401 106 154
539 781 629 910 338 489 360 523 350 541 -9 18 -28 19 -257 21 -136 1 -289 3
-339 3 -77 2 -95 -1 -109 -16 -26 -29 -4 -51 65 -65 141 -29 253 -111 291
-212 11 -29 20 -65 20 -81 0 -19 -45 -92 -152 -247 -83 -120 -179 -259 -213
-309 -34 -49 -124 -180 -200 -290 -140 -201 -158 -228 -314 -454 -47 -68 -101
-146 -120 -174 -39 -60 -26 -69 -126 89 -63 98 -65 103 -76 198 -6 53 -9 99
-6 102 2 3 47 26 98 53 89 46 94 50 95 81 1 18 8 39 18 45 38 28 27 34 -159
90 -66 20 -149 45 -185 56 l-65 20 3 112 c3 108 -14 284 -55 562 -9 61 -16
120 -16 133 1 12 -2 22 -6 22 -3 0 -6 16 -5 35 2 45 -6 76 -17 69 -5 -3 -9 0
-9 7 0 7 -9 6 -25 -5 -14 -9 -30 -14 -35 -11 -5 3 -11 1 -15 -5 -7 -12 -72
-12 -100 0 -15 6 -7 9 30 9 33 1 45 4 36 10 -7 5 -10 14 -7 20 9 14 11 14 -46
-4 -27 -8 -48 -10 -48 -5 0 5 11 12 24 16 14 3 27 12 30 20 3 8 16 19 28 24
18 7 19 9 6 9 -14 1 -18 10 -18 45 0 25 5 48 11 51 7 5 8 -7 4 -39 -5 -31 -4
-46 4 -46 6 0 11 7 11 16 0 28 17 5 30 -41 13 -46 30 -61 30 -25 0 23 10 26
28 8 9 -9 12 -8 12 8 0 14 2 16 9 5 22 -35 13 330 -15 542 -5 39 -3 46 9 41
21 -8 50 35 35 53 -9 11 -56 13 -237 10 l-226 -4 -42 -70 -43 -71 41 -71 c22
-39 44 -73 48 -75 4 -3 45 -2 91 2 93 8 121 28 39 28 -53 0 -77 17 -57 41 8
10 6 13 -6 13 -10 0 -14 5 -11 11 4 6 13 8 20 5 7 -2 35 9 61 26 47 29 46 17
-1 -24 -19 -17 -18 -17 48 -18 68 0 72 -2 68 -42 -1 -10 4 -18 13 -18 9 0 16
-4 16 -10 0 -13 -17 -13 -25 0 -9 15 -32 -5 -39 -35 -3 -13 -16 -27 -29 -31
-22 -7 -143 -7 -182 1 -11 2 -25 4 -32 4 -6 1 -36 44 -66 97 l-55 96 60 99 60
99 251 0 c194 -1 252 2 258 12 6 8 2 16 -10 22 -11 4 -21 17 -24 27 -6 23 -42
25 -51 3 -9 -24 -7 -31 4 -14 6 9 10 10 10 3 0 -6 3 -20 6 -30 5 -15 4 -15 -5
-3 -7 10 -11 11 -11 3 0 -25 -18 -13 -23 16 -6 31 -42 45 -71 29 -9 -5 -23 -5
-35 2 -11 5 -63 10 -115 10 -57 0 -96 4 -96 10 0 6 5 10 11 10 5 0 8 4 5 9 -9
14 20 21 85 21 44 0 61 4 65 15 4 8 10 13 14 10 13 -8 -1 33 -15 45 -10 8 -23
4 -51 -15 -29 -20 -46 -25 -70 -20 -41 7 -72 -5 -87 -35 -7 -14 -28 -32 -47
-42 -34 -16 -35 -15 -42 5 -3 12 -7 42 -8 67 -1 25 -6 59 -11 75 -5 19 -6 -4
-3 -63 5 -104 -3 -122 -53 -122 -27 0 -99 41 -135 76 -9 8 -34 18 -57 21 -36
5 -42 3 -52 -20 -11 -24 -47 -47 -72 -47 -7 0 -2 8 11 18 15 12 21 24 16 35
-8 21 -36 22 -76 1 -25 -13 -29 -20 -26 -45 5 -30 -11 -52 -54 -73 -12 -6 -25
-22 -28 -35 -6 -26 9 -49 -323 482 -59 95 -116 184 -127 199 -13 17 -16 28 -8
30 7 3 8 10 4 17 -5 7 -14 10 -22 7 -9 -3 -14 1 -15 12 0 14 -2 14 -9 -3 -7
-17 -9 -17 -9 -2 -1 20 -37 24 -44 5 -3 -7 -5 -1 -4 15 2 31 1 31 28 17 10 -6
19 -7 19 -3 -1 4 -49 85 -108 178 l-108 170 -716 3 c-629 2 -717 0 -728 -13z
m1564 -327 c36 -1 46 -11 24 -24 -6 -4 -14 -2 -16 4 -5 16 -22 15 -22 0 0 -7
-11 -23 -24 -36 -33 -30 -49 -79 -30 -86 8 -3 14 -13 14 -22 0 -14 -3 -14 -16
-3 -23 19 -44 65 -44 97 0 35 38 82 61 76 9 -2 33 -5 53 -6z m146 -112 c0 -8
-9 -24 -21 -37 l-20 -24 17 28 c9 15 13 27 10 27 -4 0 -4 5 -1 10 9 14 15 12
15 -4z m-100 -80 c0 -3 -4 -8 -10 -11 -5 -3 -10 -1 -10 4 0 6 5 11 10 11 6 0
10 -2 10 -4z m861 -517 c5 -8 9 -10 9 -6 0 5 13 -1 29 -12 16 -12 37 -21 48
-22 10 0 13 -3 6 -6 -7 -2 -13 -9 -13 -15 0 -6 7 -7 16 -4 12 4 15 2 10 -9 -7
-20 3 -19 27 3 20 16 20 16 13 -2 -5 -15 -4 -17 7 -8 30 25 25 -5 -12 -73 -22
-40 -39 -83 -38 -95 1 -13 31 -78 67 -144 l66 -121 161 -1 161 -2 24 47 c13
25 30 54 38 64 12 16 12 19 0 29 -12 8 -11 9 4 4 14 -5 17 -2 12 10 -4 11 -2
15 8 11 7 -3 17 -2 22 3 18 18 12 -62 -6 -93 -41 -68 -69 -125 -64 -130 3 -3
-9 -13 -28 -22 l-33 -16 25 20 25 21 -189 0 -188 0 7 -22 c4 -13 7 -31 8 -40
1 -10 7 -18 15 -18 7 0 10 -5 6 -11 -3 -6 -2 -14 3 -18 11 -7 43 -86 43 -104
-1 -6 -13 11 -27 38 -42 83 -228 298 -291 337 -18 11 -31 22 -28 25 2 3 17 -4
32 -14 25 -16 27 -16 22 -1 -5 12 -3 15 7 12 7 -3 16 -12 19 -19 3 -8 21 -21
41 -29 19 -8 35 -20 35 -25 0 -12 59 -71 71 -71 4 0 5 9 2 20 -3 11 -9 18 -13
15 -5 -3 -6 3 -3 14 3 11 -4 25 -19 37 -14 11 -23 25 -20 32 5 15 -95 62 -148
69 -22 3 -37 9 -34 14 3 5 -1 6 -9 3 -25 -9 -29 14 -5 30 12 9 18 19 14 23 -4
4 -11 1 -16 -7 -6 -10 -12 -11 -22 -2 -11 9 -20 6 -41 -14 l-26 -24 -15 22
c-75 119 -104 172 -99 182 14 28 125 119 155 127 45 11 119 4 129 -12z m379
-149 c0 -5 8 -10 18 -10 13 -1 11 -4 -8 -15 -34 -19 -43 -18 -31 4 6 10 7 21
4 25 -3 3 -1 6 5 6 7 0 12 -4 12 -10z m65 -42 c-9 -5 -23 -7 -31 -4 -8 3 -14
0 -14 -6 0 -16 69 -2 91 18 11 10 22 15 25 11 10 -10 -69 -54 -106 -60 -31 -4
-35 -2 -36 19 -2 24 8 29 50 24 11 -1 15 3 12 9 -5 7 -1 8 10 4 15 -6 15 -7
-1 -15z m-304 -25 c13 -16 12 -17 -3 -4 -10 7 -18 15 -18 17 0 8 8 3 21 -13z
m-17 -19 c3 -8 2 -12 -4 -9 -6 3 -10 10 -10 16 0 14 7 11 14 -7z m271 -18 c20
4 27 3 20 -4 -19 -20 -73 -18 -101 3 -17 13 -16 13 16 5 19 -6 49 -7 65 -4z
m-247 -31 c-3 -3 -9 2 -12 12 -6 14 -5 15 5 6 7 -7 10 -15 7 -18z m-173 -85
c3 -6 -1 -7 -9 -4 -18 7 -21 14 -7 14 6 0 13 -4 16 -10z m-61 -6 c9 -3 14 -10
11 -14 -3 -5 3 -15 12 -22 16 -12 43 -59 43 -75 0 -4 -7 2 -16 13 -15 19 -16
19 -9 -1 4 -11 9 -26 12 -32 3 -7 1 -13 -3 -12 -5 0 -30 34 -56 75 -40 63 -45
74 -29 74 11 0 26 -3 35 -6z m646 -84 c-39 -32 -78 -46 -92 -32 -6 6 3 12 24
16 18 4 44 15 58 26 40 31 49 23 10 -10z m-80 -169 c0 -11 -31 -24 -39 -16 -3
3 1 10 9 15 19 12 30 12 30 1z m-26 -132 c-6 -11 -24 -2 -24 11 0 5 7 7 15 4
8 -4 12 -10 9 -15z m96 -18 c0 -14 -27 -21 -73 -20 l-42 2 42 6 c24 4 46 10
49 14 10 10 24 9 24 -2z m157 -108 c-14 -16 -30 -39 -36 -53 -9 -22 -10 -23
-10 -4 -1 23 -24 38 -91 59 l-45 14 55 -6 c30 -3 57 -10 60 -14 9 -14 50 -6
67 13 9 10 18 18 21 18 3 0 -6 -12 -21 -27z m-398 -42 c6 -19 11 -46 10 -60 0
-26 -3 -20 -34 89 -11 38 10 12 24 -29z m286 -1 c3 -6 -1 -7 -9 -4 -18 7 -21
14 -7 14 6 0 13 -4 16 -10z m-96 -22 c-3 -25 1 -38 12 -38 6 0 9 7 5 15 -7 19
-1 19 17 0 8 -8 21 -16 28 -17 7 -2 21 -12 31 -23 l17 -20 1 20 c1 38 17 -7
30 -88 11 -67 11 -79 -2 -90 -15 -13 -34 -56 -63 -147 -10 -30 -22 -63 -27
-73 -9 -18 -11 -18 -29 -1 -25 22 -24 38 1 24 14 -7 20 -7 20 0 0 5 -7 10 -16
10 -9 0 -14 6 -11 13 2 6 8 11 13 10 5 -1 8 15 8 35 -1 20 3 42 8 48 10 14 15
141 5 151 -6 6 -9 -6 -12 -62 -1 -11 -4 -25 -7 -30 -3 -6 -11 -43 -18 -82 -6
-40 -14 -73 -16 -73 -6 0 4 154 11 173 4 10 3 17 -4 17 -8 0 -11 20 -9 63 2
47 7 62 18 62 8 0 18 7 22 15 10 23 9 50 -2 50 -5 0 -10 -9 -10 -20 0 -11 -4
-20 -8 -20 -11 0 -30 61 -24 78 5 16 13 16 11 0z m165 -40 c10 -38 6 -45 -9
-18 -17 29 -18 40 -6 40 5 0 11 -10 15 -22z m-337 -50 c-3 -8 -6 -5 -6 6 -1
11 2 17 5 13 3 -3 4 -12 1 -19z m-1083 -740 c-24 -29 -21 -25 -143 -162 -57
-64 -105 -116 -108 -116 -3 0 21 30 53 68 104 119 206 232 212 232 3 0 -3 -10
-14 -22z m46 -21 c0 -2 -10 -12 -21 -23 -22 -19 -22 -19 -8 4 12 19 29 30 29
19z m20 -77 c0 -5 -5 -10 -11 -10 -5 0 -7 5 -4 10 3 6 8 10 11 10 2 0 4 -4 4
-10z m1737 -56 c-3 -3 -12 -4 -19 -1 -8 3 -5 6 6 6 11 1 17 -2 13 -5z m-1608
-127 c-9 -7 -54 -47 -100 -89 -110 -99 -161 -137 -84 -62 97 96 176 164 188
164 7 -1 5 -6 -4 -13z m1593 -129 c3 -29 1 -35 -9 -26 -14 11 -18 70 -5 82 7
8 9 3 14 -56z m59 -714 c-12 -9 -21 -22 -21 -30 0 -8 -8 -14 -17 -14 -14 0
-14 3 4 23 11 12 26 33 34 47 11 22 14 23 17 7 2 -11 -5 -25 -17 -33z m9 -34
c0 -5 -5 -10 -11 -10 -5 0 -7 5 -4 10 3 6 8 10 11 10 2 0 4 -4 4 -10z m-1620
-156 c0 -8 -4 -12 -10 -9 -5 3 -10 10 -10 16 0 5 5 9 10 9 6 0 10 -7 10 -16z
m-60 -28 c0 -11 -19 -15 -25 -6 -3 5 1 10 9 10 9 0 16 -2 16 -4z m60 -12 c0
-2 -7 -4 -15 -4 -8 0 -15 4 -15 10 0 5 7 7 15 4 8 -4 15 -8 15 -10z m1658 -13
c24 -1 41 -5 38 -10 -3 -4 -29 -6 -58 -4 -39 2 -48 1 -33 -6 24 -11 24 -11
-40 -15 -27 -2 -39 -2 -26 1 l23 5 -27 14 c-36 19 -46 18 -38 -3 3 -11 -1 -9
-12 6 -17 22 -19 23 -31 6 -7 -9 -17 -14 -23 -11 -6 4 -4 -6 4 -21 8 -15 15
-32 15 -38 -1 -5 -8 3 -16 19 -12 22 -18 25 -24 15 -5 -8 -4 -19 2 -26 8 -10
6 -13 -6 -13 -23 0 -20 25 9 68 l25 38 88 -12 c48 -7 106 -13 130 -13z m-1558
10 c0 -5 -9 -7 -20 -4 -11 3 -20 7 -20 9 0 2 9 4 20 4 11 0 20 -4 20 -9z
m-190 -16 c10 -12 9 -15 -4 -15 -9 0 -19 -7 -22 -15 -4 -8 -10 -15 -15 -15 -6
0 -4 10 3 23 7 12 11 25 10 30 -4 13 15 8 28 -8z m257 9 c-3 -3 -12 -4 -19 -1
-8 3 -5 6 6 6 11 1 17 -2 13 -5z m53 -19 c0 -8 -4 -15 -10 -15 -5 0 -7 7 -4
15 4 8 8 15 10 15 2 0 4 -7 4 -15z m99 10 c-8 -7 -78 -9 -85 -2 -4 4 14 7 41
7 27 0 46 -2 44 -5z m23 -17 c-7 -7 -12 -8 -12 -2 0 14 12 26 19 19 2 -3 -1
-11 -7 -17z m-316 -15 c-10 -10 -19 5 -10 18 6 11 8 11 12 0 2 -7 1 -15 -2
-18z m394 23 c0 -2 -13 -6 -30 -8 -16 -3 -30 -1 -30 4 0 4 14 8 30 8 17 0 30
-2 30 -4z m-492 -30 c-10 -7 -15 -16 -11 -19 3 -4 1 -7 -6 -7 -7 0 -11 8 -9
18 2 9 10 16 16 15 7 -2 12 2 12 9 0 6 3 8 7 4 5 -4 0 -13 -9 -20z m662 4 c0
-4 -13 -7 -29 -6 -21 1 -26 4 -20 12 10 12 49 7 49 -6z m1247 -8 c1 -10 -8
-24 -20 -31 -21 -13 -21 -13 -6 5 9 10 14 25 12 32 -3 6 -1 12 4 12 5 0 9 -8
10 -18z m-1164 1 c-7 -2 -21 -2 -30 0 -10 3 -4 5 12 5 17 0 24 -2 18 -5z
m-902 -36 c-10 -9 -11 -8 -5 6 3 10 9 15 12 12 3 -3 0 -11 -7 -18z m1969 -2
c0 -8 -4 -15 -10 -15 -5 0 -10 4 -10 9 0 5 -8 12 -17 14 -11 3 -7 5 10 6 18 1
27 -4 27 -14z m-1879 -28 c-10 -9 -11 -8 -5 6 3 10 9 15 12 12 3 -3 0 -11 -7
-18z m1588 7 c2 -2 -7 -4 -22 -4 -14 0 -29 5 -32 10 -6 10 42 4 54 -6z m81
-10 c0 -2 -9 -4 -20 -4 -11 0 -20 4 -20 9 0 5 9 7 20 4 11 -3 20 -7 20 -9z
m-178 -18 c4 -19 1 -24 -14 -23 -21 2 -21 2 -6 27 16 25 15 25 20 -4z m272 13
c4 -3 0 -6 -6 -6 -7 -1 -28 -3 -45 -6 -29 -4 -41 2 -29 14 6 6 74 4 80 -2z
m41 -8 c3 -5 1 -12 -4 -15 -5 -3 -11 1 -15 9 -6 16 9 21 19 6z m52 3 c-3 -3
-12 -4 -19 -1 -8 3 -5 6 6 6 11 1 17 -2 13 -5z m-337 -15 c0 -5 4 -8 9 -5 5 3
15 -2 22 -12 13 -15 12 -16 -3 -3 -14 10 -18 11 -18 1 0 -7 8 -19 18 -26 16
-13 16 -14 0 -8 -10 3 -18 1 -18 -4 0 -6 9 -14 20 -17 26 -8 25 -17 -6 -49
-15 -14 -22 -26 -16 -26 6 0 18 -12 26 -27 l15 -28 -4 38 c-3 21 -1 37 5 37 9
0 14 -14 11 -32 0 -5 8 -8 19 -8 11 0 20 -5 20 -11 0 -6 -7 -9 -15 -5 -20 7
-18 -4 4 -31 20 -23 51 -31 51 -13 0 6 -6 10 -14 10 -8 0 -15 10 -15 23 0 12
-1 32 -1 44 0 12 -5 25 -10 28 -6 3 -10 1 -10 -4 0 -17 -17 -13 -24 5 -9 24
-4 25 28 9 15 -8 33 -12 39 -8 6 4 3 9 -9 14 -16 6 -15 8 9 8 28 1 35 19 15
39 -7 7 -9 12 -4 12 4 0 14 -7 23 -15 15 -16 11 -45 -6 -45 -12 0 -35 -39 -28
-47 3 -2 15 6 27 19 l23 23 -6 -30 c-4 -16 -4 -24 -1 -17 3 6 10 10 15 6 12
-7 11 20 -1 32 -7 7 -4 16 8 28 19 16 19 16 15 -11 l-4 -28 15 25 c12 19 15
21 16 8 0 -10 5 -18 10 -18 6 0 10 -7 10 -16 0 -13 -3 -14 -14 -5 -11 9 -12 6
-9 -14 5 -24 5 -24 42 15 40 43 85 53 71 15 -6 -15 -15 -19 -36 -17 -22 2 -26
0 -14 -8 13 -8 12 -10 -5 -11 -17 -1 -17 -2 -2 -6 9 -2 17 -9 17 -15 0 -5 -7
-8 -15 -4 -9 3 -15 0 -15 -9 0 -8 5 -15 11 -15 6 0 24 -9 40 -21 20 -14 29
-16 29 -7 0 17 20 -12 20 -30 0 -18 -23 -10 -37 13 l-12 20 -1 -20 c-1 -20 -1
-20 -15 -1 -9 12 -15 15 -15 7 0 -11 -3 -11 -15 -1 -13 10 -15 9 -15 -9 0 -11
-5 -21 -11 -21 -5 0 -7 -5 -3 -12 6 -9 9 -9 12 0 6 19 22 14 22 -8 0 -29 -60
-31 -92 -3 -16 14 -16 17 0 39 10 14 24 21 34 18 9 -3 20 1 24 7 5 8 2 10 -8
6 -25 -9 -52 27 -39 52 6 11 11 26 10 33 0 7 -4 3 -9 -9 -6 -15 -18 -23 -34
-23 -14 0 -28 -4 -31 -10 -3 -5 3 -10 14 -10 23 0 57 -30 44 -39 -5 -3 -12
-14 -16 -23 -3 -10 -12 -18 -19 -18 -9 0 -9 3 2 10 8 5 11 12 7 16 -4 4 -13 2
-20 -5 -9 -10 -8 -15 6 -25 27 -21 20 -35 -16 -33 -37 2 -45 23 -18 44 9 6 13
15 8 19 -4 4 -13 2 -19 -4 -19 -19 -28 -14 -39 18 -9 25 -13 28 -29 17 -14 -8
-16 -15 -9 -23 7 -9 4 -16 -10 -24 -17 -9 -21 -8 -21 6 0 13 -3 14 -15 4 -8
-7 -21 -10 -30 -7 -18 8 -27 -6 -19 -28 5 -13 8 -14 15 -3 7 10 9 9 9 -5 0
-15 -8 -17 -55 -16 -30 1 -55 4 -55 7 0 3 7 14 17 24 9 10 13 21 8 26 -4 4
-10 2 -12 -5 -2 -6 -13 -22 -24 -34 -17 -20 -22 -21 -29 -9 -6 8 -10 10 -10 5
0 -6 -9 -11 -20 -12 -11 -1 -19 1 -19 5 1 4 1 14 0 22 -1 12 -5 11 -16 -4 -8
-11 -15 -16 -15 -12 0 4 25 45 57 89 31 45 72 105 92 134 20 28 37 50 38 49 4
-3 -33 -74 -47 -91 -9 -11 -9 -15 -1 -15 16 0 53 22 67 40 17 20 6 34 -14 18
-14 -12 -14 -10 -3 10 13 24 31 30 31 10 0 -7 7 -2 16 10 9 13 14 32 11 43 -3
10 -1 19 4 19 5 0 9 -5 9 -11z m-640 -39 c0 -5 -2 -10 -4 -10 -3 0 -8 5 -11
10 -3 6 -1 10 4 10 6 0 11 -4 11 -10z m610 0 c0 -5 -2 -10 -4 -10 -3 0 -8 5
-11 10 -3 6 -1 10 4 10 6 0 11 -4 11 -10z m160 0 c0 -5 -5 -10 -11 -10 -5 0
-7 5 -4 10 3 6 8 10 11 10 2 0 4 -4 4 -10z m-755 -30 c3 -5 1 -10 -4 -10 -6 0
-11 5 -11 10 0 6 2 10 4 10 3 0 8 -4 11 -10z m920 -10 c4 -6 1 -17 -5 -26 -10
-11 -16 -12 -26 -3 -8 6 -14 17 -13 23 0 7 2 6 6 -1 2 -7 9 -13 14 -13 4 0 6
7 3 15 -7 17 11 21 21 5z m35 0 c0 -5 -2 -10 -4 -10 -3 0 -8 5 -11 10 -3 6 -1
10 4 10 6 0 11 -4 11 -10z m198 -15 c-3 -3 -9 2 -12 12 -6 14 -5 15 5 6 7 -7
10 -15 7 -18z m-111 -17 c-3 -8 -6 -5 -6 6 -1 11 2 17 5 13 3 -3 4 -12 1 -19z
m4 -51 c-10 -9 -11 -8 -5 6 3 10 9 15 12 12 3 -3 0 -11 -7 -18z m-66 3 c-3 -5
-14 -10 -23 -10 -15 0 -15 2 -2 10 20 13 33 13 25 0z m181 1 c-4 -5 -2 -11 3
-13 4 -1 12 -14 16 -28 9 -28 7 -27 -24 18 -19 27 -20 32 -6 32 9 0 14 -4 11
-9z m58 -27 c10 -26 7 -51 -7 -51 -8 0 -14 13 -14 34 -1 35 11 44 21 17z m36
6 c0 -5 -5 -10 -11 -10 -5 0 -7 5 -4 10 3 6 8 10 11 10 2 0 4 -4 4 -10z m-267
-25 c-3 -9 -8 -14 -10 -11 -3 3 -2 9 2 15 9 16 15 13 8 -4z m164 0 c8 -9 13
-19 9 -22 -7 -7 -36 16 -36 28 0 13 10 11 27 -6z m108 -15 c-3 -5 -10 -10 -16
-10 -5 0 -9 5 -9 10 0 6 7 10 16 10 8 0 12 -4 9 -10z m-635 -82 c0 -18 -2 -20
-9 -8 -6 8 -7 18 -5 22 9 14 14 9 14 -14z m561 5 c13 -15 12 -15 -8 -4 -24 12
-29 21 -14 21 5 0 15 -7 22 -17z m-1621 -3 c0 -5 -4 -10 -10 -10 -5 0 -10 5
-10 10 0 6 5 10 10 10 6 0 10 -4 10 -10z m1367 -12 c-3 -8 -6 -5 -6 6 -1 11 2
17 5 13 3 -3 4 -12 1 -19z m30 0 c-3 -8 -6 -5 -6 6 -1 11 2 17 5 13 3 -3 4
-12 1 -19z m93 13 c0 -5 -7 -11 -14 -14 -10 -4 -13 -1 -9 9 6 15 23 19 23 5z
m-1553 -7 c-3 -3 -12 -4 -19 -1 -8 3 -5 6 6 6 11 1 17 -2 13 -5z"/>
<path d="M3630 3780 c8 -5 24 -10 35 -10 17 0 17 2 5 10 -8 5 -24 10 -35 10
-17 0 -17 -2 -5 -10z"/>
<path d="M3700 3785 c0 -5 12 -21 27 -35 23 -22 25 -22 15 -4 -6 12 -8 25 -4
29 4 5 1 5 -7 0 -8 -4 -17 -2 -22 6 -5 8 -9 10 -9 4z"/>
<path d="M3564 3752 c-6 -4 -15 -18 -19 -32 -8 -28 -6 -27 18 13 19 29 19 31
1 19z"/>
<path d="M3682 3741 c-7 -4 -8 -12 -2 -21 7 -11 10 -11 10 -2 0 10 5 10 21 2
13 -8 18 -17 14 -28 -5 -13 -3 -14 5 -6 23 23 -21 72 -48 55z"/>
<path d="M3530 3680 c0 -5 5 -10 10 -10 6 0 10 5 10 10 0 6 -4 10 -10 10 -5 0
-10 -4 -10 -10z"/>
<path d="M3644 3611 c4 -5 3 -11 -1 -14 -5 -2 -3 -3 2 -1 6 1 20 -5 30 -13 19
-14 19 -15 -5 -8 -16 5 -4 -8 32 -34 31 -22 59 -41 63 -41 13 0 -44 72 -76 96
-33 24 -55 32 -45 15z"/>
<path d="M3628 3543 c6 -2 18 -2 25 0 6 3 1 5 -13 5 -14 0 -19 -2 -12 -5z"/>
<path d="M4501 495 c-22 -22 -23 -25 -8 -40 15 -15 19 -15 42 2 29 22 30 25 8
45 -16 14 -20 13 -42 -7z m25 -23 c-8 -9 -18 -13 -22 -10 -8 9 19 37 29 31 5
-3 2 -12 -7 -21z"/>
<path d="M4850 460 c0 -5 5 -10 10 -10 6 0 10 5 10 10 0 6 -4 10 -10 10 -5 0
-10 -4 -10 -10z"/>
<path d="M4425 429 c-4 -6 -5 -13 -2 -16 7 -7 27 6 27 18 0 12 -17 12 -25 -2z"/>
<path d="M4436 304 c-5 -14 -4 -15 9 -4 17 14 19 20 6 20 -5 0 -12 -7 -15 -16z"/>
<path d="M3353 4868 c-21 -27 -34 -58 -23 -58 5 0 10 5 10 12 0 6 10 22 22 35
12 13 17 23 11 23 -6 0 -15 -6 -20 -12z"/>
<path d="M3863 4855 c0 -17 6 -18 25 -6 11 7 10 10 -3 15 -22 8 -22 8 -22 -9z"/>
<path d="M3915 4840 c-3 -5 -23 -10 -43 -11 -30 0 -33 -2 -17 -9 27 -12 68
-12 60 -1 -3 6 3 14 12 20 10 6 13 11 6 11 -6 0 -15 -4 -18 -10z"/>
<path d="M4666 4791 c-19 -35 -19 -39 5 -166 18 -102 18 -106 8 -99 -6 3 -9
13 -7 22 2 11 -11 25 -40 40 -40 22 -53 23 -187 21 -107 -2 -146 -6 -149 -16
-3 -7 -13 -13 -23 -13 -16 1 -16 2 -3 13 9 7 17 25 18 41 3 37 18 48 56 41 24
-4 26 -3 17 9 -13 15 -69 13 -101 -4 -26 -14 -37 -12 -18 3 30 22 26 58 -7 78
-47 27 -58 24 -49 -13 9 -36 9 -76 1 -84 -3 -3 -51 18 -108 46 -57 28 -94 42
-82 32 37 -33 13 -33 -46 0 -66 36 -58 26 23 -31 33 -23 53 -41 45 -42 -8 0 9
-10 36 -23 28 -13 62 -36 75 -52 14 -16 41 -39 60 -51 41 -26 57 -43 89 -102
15 -27 18 -41 10 -36 -11 6 -12 5 -1 -6 6 -7 12 -17 12 -22 0 -4 -6 -5 -12 -2
-7 4 2 -6 20 -22 31 -27 45 -52 20 -37 -8 5 -9 2 -3 -12 4 -10 27 -80 50 -154
42 -132 45 -137 102 -193 69 -68 123 -108 134 -101 5 3 6 -1 3 -9 -3 -8 2 -17
10 -20 25 -10 18 -26 -9 -22 -14 1 -25 -2 -25 -6 0 -5 6 -9 13 -9 15 0 47 -35
47 -53 0 -7 9 -13 20 -13 13 0 20 7 20 19 0 13 5 17 18 14 9 -3 29 -8 45 -11
24 -6 27 -11 27 -46 0 -22 5 -40 10 -40 6 0 10 -15 10 -32 0 -18 7 -41 15 -52
13 -17 15 -17 31 -1 16 16 16 20 1 69 -21 67 -22 65 8 76 14 5 25 16 25 25 0
8 9 15 19 15 11 0 23 5 26 10 3 6 0 10 -7 10 -10 0 -9 3 2 11 12 8 8 10 -15 7
-30 -4 -30 -3 -32 47 l-3 51 30 -4 c16 -2 37 -2 45 2 13 5 11 11 -12 33 -28
28 -28 28 -63 11 -34 -16 -35 -16 -47 5 -7 12 -12 26 -13 31 0 7 31 5 70 -5
29 -8 15 24 -15 35 -19 7 -29 17 -28 26 2 8 -7 20 -19 25 -28 12 -39 75 -14
75 23 0 20 37 -3 45 -31 10 -46 105 -16 105 8 0 15 5 15 10 0 6 -6 10 -12 10
-9 0 -8 4 2 10 12 8 10 10 -10 10 -21 0 -26 5 -28 28 -3 35 -62 454 -66 467
-1 6 -11 -5 -20 -24z m-508 -145 c12 -1 22 -4 22 -8 0 -13 -33 -8 -60 8 -16
10 -18 13 -5 8 11 -4 30 -8 43 -8z m256 -161 c13 -14 33 -53 46 -86 13 -36 39
-80 62 -105 l41 -44 44 36 c36 30 47 34 54 23 5 -8 9 -18 9 -23 0 -4 10 -6 23
-4 16 3 23 0 23 -11 0 -21 12 -128 24 -216 5 -38 7 -72 4 -76 -2 -4 4 -13 13
-19 16 -10 15 -11 -7 -6 -95 22 -130 16 -130 -21 0 -13 3 -13 15 -3 20 16 30
7 13 -11 -7 -8 -13 -20 -13 -28 0 -8 -6 -16 -14 -19 -9 -3 -11 0 -7 7 4 7 2
18 -4 26 -7 8 -10 22 -6 30 3 10 2 13 -5 10 -5 -4 -17 11 -26 34 -9 23 -22 41
-30 41 -7 0 -12 3 -11 8 2 12 -15 47 -28 55 -7 4 -11 14 -8 21 3 8 -3 22 -14
32 -11 11 -22 28 -26 40 -3 11 -12 21 -19 22 -44 4 -57 8 -57 19 0 7 11 13 24
13 28 0 41 14 29 33 -4 6 -8 23 -8 37 -1 14 -9 42 -18 64 -9 21 -17 45 -17 52
0 8 -6 14 -13 14 -7 0 -18 9 -25 20 -11 18 -10 20 9 20 21 0 22 1 4 20 -18 19
-17 20 4 20 12 0 32 -11 45 -25z m276 -2 c0 -16 3 -39 7 -53 3 -14 3 -22 -1
-19 -10 10 -24 99 -15 99 5 0 9 -12 9 -27z m20 -132 c7 -14 7 -22 -2 -27 -6
-4 -8 -3 -4 4 3 6 2 13 -4 17 -10 6 -14 25 -5 25 2 0 9 -9 15 -19z m97 -407
c-3 -3 -12 -4 -19 -1 -8 3 -5 6 6 6 11 1 17 -2 13 -5z m-49 -10 c30 -8 28 -21
-5 -27 -31 -6 -67 9 -58 24 7 10 30 11 63 3z m86 -38 c-10 -8 -21 -12 -24 -10
-5 6 21 24 34 24 6 0 1 -6 -10 -14z"/>
<path d="M3340 4795 c-7 -8 -9 -15 -4 -15 5 0 4 -4 -2 -8 -6 -4 -15 -18 -19
-32 -7 -25 -7 -25 9 -3 16 21 38 73 32 73 -2 0 -9 -7 -16 -15z"/>
<path d="M3292 4755 c-30 -61 -28 -71 3 -16 14 24 24 48 23 53 -2 5 -13 -11
-26 -37z"/>
<path d="M3831 4760 c-18 -22 -37 -38 -42 -35 -5 4 -28 -10 -51 -30 -23 -19
-48 -33 -55 -31 -7 3 -20 -5 -29 -18 -18 -29 -44 -40 -58 -26 -7 7 -4 10 11
10 12 0 32 15 48 38 15 20 42 50 59 65 22 20 25 27 11 22 -74 -27 -131 -49
-134 -52 -3 -2 0 -8 6 -14 8 -8 17 -7 33 1 40 22 32 2 -9 -21 -44 -24 -47 -30
-31 -58 11 -21 58 -17 67 5 3 8 9 11 14 8 5 -3 9 -1 9 5 0 12 32 31 61 36 11
2 33 15 49 28 24 20 38 24 88 23 56 -2 59 -1 39 13 -12 7 -28 21 -36 30 -12
14 -13 14 -8 -6 3 -13 -1 -24 -10 -27 -8 -3 -11 -1 -8 4 3 6 1 10 -5 10 -6 0
-3 11 6 25 27 42 10 38 -25 -5z m-46 -59 c-3 -6 -16 -16 -28 -22 -21 -11 -21
-10 2 15 23 25 40 29 26 7z"/>
<path d="M4120 4760 c0 -6 -12 -8 -27 -5 l-28 6 25 -15 c33 -20 35 -20 37 4 1
11 0 20 -3 20 -2 0 -4 -5 -4 -10z"/>
<path d="M3725 4725 c-16 -13 -25 -24 -19 -25 10 0 54 36 54 45 0 8 -4 6 -35
-20z"/>
<path d="M4060 4736 c0 -10 101 -57 113 -53 7 2 -6 13 -28 24 -46 24 -85 37
-85 29z"/>
<path d="M3865 4670 c-3 -5 -2 -10 4 -10 5 0 13 5 16 10 3 6 2 10 -4 10 -5 0
-13 -4 -16 -10z"/>
<path d="M3913 4663 c30 -8 19 -23 -17 -23 -19 0 -37 -4 -40 -9 -3 -4 16 -7
42 -6 26 2 74 -4 107 -12 33 -8 65 -16 70 -17 6 -1 21 -8 35 -15 25 -13 25
-13 5 6 -11 11 -54 30 -95 43 -41 13 -79 27 -84 32 -6 4 -17 7 -25 7 -12 -1
-12 -2 2 -6z"/>
<path d="M3755 4650 c-4 -6 6 -10 22 -10 22 0 25 2 13 10 -19 12 -27 12 -35 0z"/>
<path d="M3783 4623 c-18 -6 -16 -23 1 -23 17 0 30 16 19 23 -5 2 -14 2 -20 0z"/>
<path d="M3697 4584 c-22 -14 -37 -28 -34 -30 5 -5 87 45 87 52 0 9 -17 1 -53
-22z"/>
<path d="M3768 4543 c7 -3 16 -2 19 1 4 3 -2 6 -13 5 -11 0 -14 -3 -6 -6z"/>
<path d="M3835 4540 c-3 -6 1 -7 9 -4 18 7 21 14 7 14 -6 0 -13 -4 -16 -10z"/>
<path d="M3296 4527 c3 -10 9 -15 12 -12 3 3 0 11 -7 18 -10 9 -11 8 -5 -6z"/>
<path d="M3635 4511 c-8 -17 -12 -31 -7 -31 10 0 35 50 28 57 -2 3 -12 -9 -21
-26z"/>
<path d="M3974 4514 c-18 -14 -18 -15 4 -4 12 6 22 13 22 15 0 8 -5 6 -26 -11z"/>
<path d="M3986 4463 c-8 -25 -82 -100 -129 -131 -31 -20 -52 -26 -98 -27 -60
-1 -88 -9 -41 -12 15 0 28 -6 30 -12 2 -6 8 -9 13 -5 16 10 9 -9 -8 -22 -17
-12 -16 -13 5 -14 12 0 22 5 22 12 0 9 3 9 12 0 17 -17 59 -15 73 4 6 9 23 17
38 17 19 0 27 6 32 26 4 14 10 28 14 31 3 3 15 18 25 34 15 23 16 28 3 23 -8
-3 -17 -3 -20 0 -9 8 17 31 30 26 14 -6 53 14 53 27 0 15 -17 12 -34 -5 -18
-18 -32 -20 -19 -2 16 19 23 47 13 47 -5 0 -11 -8 -14 -17z m-28 -100 c-2 -9
-8 -18 -15 -20 -7 -3 -9 3 -6 16 6 25 26 28 21 4z m-48 -58 c-7 -8 -18 -15
-24 -15 -6 0 -2 7 8 15 25 19 32 19 16 0z m-69 -36 c-25 -20 -42 -21 -48 -2
-2 6 6 13 19 16 48 9 53 7 29 -14z"/>
<path d="M4078 4473 c7 -3 16 -2 19 1 4 3 -2 6 -13 5 -11 0 -14 -3 -6 -6z"/>
<path d="M4191 4466 c2 -2 15 -9 29 -15 24 -11 24 -11 6 3 -16 13 -49 24 -35
12z"/>
<path d="M4170 4445 c14 -8 35 -19 47 -24 11 -5 24 -15 28 -20 3 -6 12 -11 18
-11 15 0 -27 34 -67 55 -37 19 -59 19 -26 0z"/>
<path d="M3825 4420 c-3 -6 1 -7 9 -4 18 7 21 14 7 14 -6 0 -13 -4 -16 -10z"/>
<path d="M3649 4403 c-13 -16 -12 -17 4 -4 9 7 17 15 17 17 0 8 -8 3 -21 -13z"/>
<path d="M3835 4390 c-3 -5 -1 -10 4 -10 6 0 11 5 11 10 0 6 -2 10 -4 10 -3 0
-8 -4 -11 -10z"/>
<path d="M3640 4346 c7 -7 13 -7 20 0 6 6 3 10 -10 10 -13 0 -16 -4 -10 -10z"/>
<path d="M4181 4330 c0 -14 4 -32 9 -40 9 -13 10 -13 9 0 -1 8 -5 26 -9 40
l-8 25 -1 -25z"/>
<path d="M3710 4270 c0 -5 5 -10 10 -10 6 0 10 5 10 10 0 6 -4 10 -10 10 -5 0
-10 -4 -10 -10z"/>
<path d="M4306 4225 c3 -27 5 -83 6 -122 1 -71 10 -94 21 -54 9 34 -1 134 -17
181 l-15 45 5 -50z"/>
<path d="M3561 4175 c-22 -68 -28 -116 -12 -99 8 8 41 156 36 162 -1 1 -12
-27 -24 -63z"/>
<path d="M4206 4224 c-4 -9 -4 -19 -1 -22 2 -3 7 3 11 12 4 9 4 19 1 22 -2 3
-7 -3 -11 -12z"/>
<path d="M3802 4182 c-7 -5 -12 -17 -11 -28 4 -43 -2 -74 -13 -71 -9 1 -14
-17 -16 -62 -3 -54 -1 -61 11 -49 12 12 22 53 42 181 6 40 6 41 -13 29z"/>
<path d="M4221 4104 c0 -11 3 -14 6 -6 3 7 2 16 -1 19 -3 4 -6 -2 -5 -13z"/>
<path d="M4371 4030 c9 -78 13 -90 36 -90 11 0 14 6 9 23 -4 12 -8 27 -10 32
-8 31 -29 91 -35 98 -4 4 -4 -24 0 -63z"/>
<path d="M3501 4070 c0 -8 4 -24 9 -35 l9 -20 0 20 c0 11 -4 27 -9 35 -9 13
-10 13 -9 0z"/>
<path d="M3830 4033 c0 -10 -3 -29 -7 -42 -4 -17 -3 -22 5 -17 15 9 15 1 2
-24 -6 -12 -6 -27 -1 -42 6 -13 10 -18 11 -13 0 6 4 3 10 -5 18 -29 23 1 10
75 -12 70 -30 110 -30 68z"/>
<path d="M4231 4024 c0 -11 3 -14 6 -6 3 7 2 16 -1 19 -3 4 -6 -2 -5 -13z"/>
<path d="M4316 4004 c-9 -25 -7 -64 4 -64 6 0 10 11 10 24 0 13 3 31 6 40 3 9
2 16 -4 16 -5 0 -13 -7 -16 -16z"/>
<path d="M4313 3105 c-9 -10 -8 -14 8 -18 20 -5 24 0 11 19 -5 9 -10 8 -19 -1z"/>
<path d="M3096 1733 c-6 -14 -5 -15 5 -6 7 7 10 15 7 18 -3 3 -9 -2 -12 -12z"/>
<path d="M3039 1683 c-13 -16 -12 -17 4 -4 16 13 21 21 13 21 -2 0 -10 -8 -17
-17z"/>
<path d="M2990 1650 c0 -6 -4 -8 -10 -5 -5 3 -10 -1 -10 -9 0 -20 14 -21 29
-2 8 10 9 16 1 21 -5 3 -10 1 -10 -5z"/>
<path d="M2890 1571 c0 -5 5 -13 10 -16 6 -3 10 -2 10 4 0 5 -4 13 -10 16 -5
3 -10 2 -10 -4z"/>
<path d="M3310 1178 c0 -19 2 -20 10 -8 13 19 13 30 0 30 -5 0 -10 -10 -10
-22z"/>
<path d="M3332 1160 c-10 -17 -10 -21 0 -19 29 3 59 -1 54 -9 -3 -5 9 -6 25
-4 16 2 27 7 24 11 -7 6 -12 7 -57 9 -15 1 -28 9 -30 17 -2 12 -6 11 -16 -5z"/>
<path d="M3238 1163 c7 -3 16 -2 19 1 4 3 -2 6 -13 5 -11 0 -14 -3 -6 -6z"/>
<path d="M3346 1091 c-7 -11 87 -30 174 -35 49 -3 57 -1 35 5 -16 5 -50 11
-75 14 -25 2 -61 9 -80 15 -43 12 -47 12 -54 1z"/>
<path d="M3245 1074 l-30 -13 30 6 c32 6 41 11 34 17 -2 2 -17 -2 -34 -10z"/>
<path d="M2920 1050 c-9 -6 -10 -10 -3 -10 6 0 15 5 18 10 8 12 4 12 -15 0z"/>
<path d="M3118 1033 c7 -3 16 -2 19 1 4 3 -2 6 -13 5 -11 0 -14 -3 -6 -6z"/>
<path d="M3330 1030 c0 -5 7 -10 16 -10 8 0 12 5 9 10 -3 6 -10 10 -16 10 -5
0 -9 -4 -9 -10z"/>
<path d="M2898 967 c-98 -33 -178 -64 -178 -68 0 -8 48 7 105 32 11 4 77 27
148 49 70 23 127 43 127 46 0 9 -29 0 -202 -59z"/>
<path d="M3228 883 c6 -2 18 -2 25 0 6 3 1 5 -13 5 -14 0 -19 -2 -12 -5z"/>
<path d="M3368 873 c7 -3 16 -2 19 1 4 3 -2 6 -13 5 -11 0 -14 -3 -6 -6z"/>
<path d="M3448 863 c18 -2 45 -2 60 0 15 2 0 4 -33 4 -33 0 -45 -2 -27 -4z"/>
<path d="M3245 850 c3 -5 8 -10 11 -10 2 0 4 5 4 10 0 6 -5 10 -11 10 -5 0 -7
-4 -4 -10z"/>
<path d="M4651 816 c-7 -9 -8 -17 -2 -20 11 -7 43 4 53 18 4 6 8 1 8 -12 0
-13 4 -21 9 -18 4 3 26 -3 47 -13 90 -42 174 -31 117 16 -10 8 -12 12 -6 8 8
-4 11 -1 7 9 -5 14 -8 14 -21 1 -18 -18 -34 -20 -28 -2 6 14 -47 15 -78 2 -11
-5 -24 -2 -36 9 -20 18 -41 21 -41 6 0 -5 -5 -10 -11 -10 -5 0 -7 5 -4 10 9
15 -1 12 -14 -4z m144 -16 c-3 -5 -12 -10 -18 -10 -7 0 -6 4 3 10 19 12 23 12
15 0z"/>
<path d="M2597 748 c-8 -22 1 -28 44 -28 46 0 57 13 23 29 -34 15 -44 14 -45
-6 0 -16 -1 -16 -8 1 -6 17 -8 17 -14 4z m57 -6 c3 -5 -1 -9 -9 -9 -8 0 -12 4
-9 9 3 4 7 8 9 8 2 0 6 -4 9 -8z"/>
<path d="M2700 705 c-46 -26 -54 -29 -58 -17 -6 18 -19 14 -25 -8 -3 -11 0
-23 5 -27 7 -4 8 -1 3 7 -6 10 -4 12 7 7 9 -3 32 3 52 14 43 23 53 24 37 5 -9
-11 -9 -16 0 -22 8 -4 9 -3 5 4 -4 7 -1 12 8 12 8 0 18 5 21 10 4 6 1 9 -7 8
-7 -2 -12 3 -10 10 3 16 -7 15 -38 -3z"/>
<path d="M2779 698 c-12 -23 -12 -23 10 -4 18 16 21 17 21 3 0 -8 -6 -18 -12
-20 -8 -3 -6 -6 5 -6 12 -1 17 7 17 24 0 32 -25 33 -41 3z"/>
<path d="M2860 699 c0 -5 -4 -7 -10 -4 -5 3 -10 1 -10 -4 0 -6 7 -11 15 -11 8
0 15 7 15 15 0 8 -2 15 -5 15 -3 0 -5 -5 -5 -11z"/>
<path d="M2520 690 c-12 -8 -11 -10 6 -10 11 0 26 -6 33 -12 11 -11 11 -9 2
10 -13 24 -19 26 -41 12z"/>
<path d="M2590 689 c0 -5 5 -7 10 -4 6 3 10 8 10 11 0 2 -4 4 -10 4 -5 0 -10
-5 -10 -11z"/>
<path d="M2418 684 c-3 -5 3 -18 14 -29 11 -11 19 -15 18 -10 -4 20 0 35 10
35 6 0 10 -7 10 -15 0 -8 5 -15 11 -15 6 0 9 6 6 14 -3 8 -1 17 6 20 7 2 0 5
-15 5 -15 1 -30 -4 -34 -10 -5 -8 -9 -8 -14 1 -4 7 -10 8 -12 4z"/>
<path d="M2363 673 c-18 -7 -16 -21 7 -50 15 -19 20 -21 20 -9 0 9 -4 16 -10
16 -5 0 -10 9 -10 21 0 15 5 19 15 15 8 -3 15 -1 15 4 0 11 -16 12 -37 3z"/>
<path d="M2250 659 c0 -5 5 -7 10 -4 6 3 10 8 10 11 0 2 -4 4 -10 4 -5 0 -10
-5 -10 -11z"/>
<path d="M2280 655 c0 -8 2 -15 4 -15 2 0 6 7 10 15 3 8 1 15 -4 15 -6 0 -10
-7 -10 -15z"/>
<path d="M2315 660 c3 -5 8 -10 11 -10 2 0 4 5 4 10 0 6 -5 10 -11 10 -5 0 -7
-4 -4 -10z"/>
<path d="M2530 666 c0 -2 8 -10 18 -17 15 -13 16 -12 3 4 -13 16 -21 21 -21
13z"/>
<path d="M2592 650 c0 -14 2 -19 5 -12 2 6 2 18 0 25 -3 6 -5 1 -5 -13z"/>
<path d="M3267 644 c-10 -13 -14 -24 -10 -24 9 0 36 40 31 45 -2 2 -11 -8 -21
-21z"/>
<path d="M2220 649 c0 -5 5 -7 10 -4 6 3 10 8 10 11 0 2 -4 4 -10 4 -5 0 -10
-5 -10 -11z"/>
<path d="M2460 625 c-14 -16 -10 -18 14 -9 9 3 16 10 16 15 0 14 -16 11 -30
-6z"/>
<path d="M2952 625 c-1 -5 -4 -25 -7 -44 -5 -36 8 -61 33 -61 13 0 13 2 -3 13
-10 8 -15 19 -11 26 4 6 3 18 -4 26 -8 10 -6 18 11 34 21 19 21 20 2 18 -11 0
-20 -6 -21 -12z"/>
<path d="M3138 633 c7 -3 16 -2 19 1 4 3 -2 6 -13 5 -11 0 -14 -3 -6 -6z"/>
<path d="M3545 630 c-3 -5 3 -10 14 -10 12 0 21 5 21 10 0 6 -6 10 -14 10 -8
0 -18 -4 -21 -10z"/>
<path d="M2220 614 c0 -8 5 -12 10 -9 6 4 8 11 5 16 -9 14 -15 11 -15 -7z"/>
<path d="M2500 619 c0 -5 5 -7 10 -4 6 3 10 8 10 11 0 2 -4 4 -10 4 -5 0 -10
-5 -10 -11z"/>
<path d="M3040 603 c-13 -15 -12 -16 4 -10 10 4 20 7 22 7 2 0 4 5 4 10 0 15
-13 12 -30 -7z"/>
<path d="M3178 603 c7 -3 16 -2 19 1 4 3 -2 6 -13 5 -11 0 -14 -3 -6 -6z"/>
<path d="M3575 600 c3 -5 8 -10 11 -10 2 0 4 5 4 10 0 6 -5 10 -11 10 -5 0 -7
-4 -4 -10z"/>
<path d="M2795 580 c-3 -5 -1 -10 4 -10 6 0 11 5 11 10 0 6 -2 10 -4 10 -3 0
-8 -4 -11 -10z"/>
<path d="M3060 576 c0 -9 5 -16 10 -16 6 0 10 4 10 9 0 6 -4 13 -10 16 -5 3
-10 -1 -10 -9z"/>
<path d="M3230 580 c8 -5 20 -10 25 -10 6 0 3 5 -5 10 -8 5 -19 10 -25 10 -5
0 -3 -5 5 -10z"/>
<path d="M3040 554 c7 -17 6 -32 -1 -46 -8 -15 -8 -19 0 -14 7 5 12 -2 12 -16
1 -13 5 -5 8 17 3 22 3 42 -1 43 -5 2 -8 12 -8 23 0 10 -4 19 -10 19 -6 0 -6
-9 0 -26z"/>
<path d="M3577 573 c-4 -3 -7 -11 -7 -17 0 -6 5 -5 12 2 6 6 9 14 7 17 -3 3
-9 2 -12 -2z"/>
<path d="M2874 551 c0 -15 3 -17 13 -9 7 6 13 14 13 19 0 5 -6 9 -13 9 -7 0
-13 -9 -13 -19z"/>
<path d="M3010 551 c0 -25 6 -27 13 -6 4 8 2 17 -3 20 -6 4 -10 -3 -10 -14z"/>
<path d="M2911 548 c-1 -9 4 -18 11 -20 6 -2 8 -10 4 -17 -6 -9 -11 -9 -21 -1
-9 8 -14 7 -18 -3 -5 -14 26 -17 40 -3 4 4 15 -3 25 -16 10 -13 17 -17 16 -9
-2 8 -10 22 -18 31 -8 9 -20 25 -27 36 -10 16 -12 17 -12 2z"/>
<path d="M2980 549 c0 -5 5 -7 10 -4 6 3 10 8 10 11 0 2 -4 4 -10 4 -5 0 -10
-5 -10 -11z"/>
<path d="M3455 540 c3 -5 11 -10 16 -10 6 0 7 5 4 10 -3 6 -11 10 -16 10 -6 0
-7 -4 -4 -10z"/>
<path d="M3507 543 c-3 -5 6 -9 19 -9 13 -1 24 2 24 7 0 11 -37 12 -43 2z"/>
<path d="M3595 540 c-3 -5 -1 -10 4 -10 6 0 11 5 11 10 0 6 -2 10 -4 10 -3 0
-8 -4 -11 -10z"/>
<path d="M3620 540 c0 -5 4 -10 9 -10 6 0 13 5 16 10 3 6 -1 10 -9 10 -9 0
-16 -4 -16 -10z"/>
<path d="M3778 533 c17 -3 22 -9 17 -21 -5 -13 -3 -14 6 -5 16 16 3 33 -24 32
-21 -2 -21 -2 1 -6z"/>
<path d="M2840 520 c0 -5 5 -10 11 -10 5 0 7 5 4 10 -3 6 -8 10 -11 10 -2 0
-4 -4 -4 -10z"/>
<path d="M3088 513 c6 -2 12 -11 12 -19 0 -9 5 -12 10 -9 13 8 -6 35 -24 34
-7 0 -6 -2 2 -6z"/>
<path d="M2813 498 c-23 -30 -24 -41 -2 -21 12 12 20 25 17 28 -3 3 -10 0 -15
-7z"/>
<path d="M3005 500 c-3 -5 -1 -10 4 -10 6 0 11 5 11 10 0 6 -2 10 -4 10 -3 0
-8 -4 -11 -10z"/>
<path d="M3265 500 c-3 -5 -1 -10 4 -10 6 0 11 5 11 10 0 6 -2 10 -4 10 -3 0
-8 -4 -11 -10z"/>
<path d="M3605 490 c3 -5 13 -10 21 -10 8 0 12 5 9 10 -3 6 -13 10 -21 10 -8
0 -12 -4 -9 -10z"/>
<path d="M3072 465 c0 -16 2 -22 5 -12 2 9 2 23 0 30 -3 6 -5 -1 -5 -18z"/>
<path d="M3190 481 c0 -6 4 -13 10 -16 6 -3 7 1 4 9 -7 18 -14 21 -14 7z"/>
<path d="M3228 483 c7 -3 16 -2 19 1 4 3 -2 6 -13 5 -11 0 -14 -3 -6 -6z"/>
<path d="M2980 470 c0 -5 5 -10 10 -10 6 0 10 5 10 10 0 6 -4 10 -10 10 -5 0
-10 -4 -10 -10z"/>
<path d="M2887 464 c-4 -4 -7 -17 -7 -28 1 -19 1 -20 11 -3 11 19 8 43 -4 31z"/>
<path d="M2930 460 c0 -5 5 -10 10 -10 6 0 10 5 10 10 0 6 -4 10 -10 10 -5 0
-10 -4 -10 -10z"/>
<path d="M3415 460 c-3 -5 -1 -10 4 -10 6 0 11 5 11 10 0 6 -2 10 -4 10 -3 0
-8 -4 -11 -10z"/>
<path d="M3148 434 c-16 -8 -28 -16 -28 -18 0 -9 40 7 51 20 14 17 11 17 -23
-2z"/>
<path d="M2970 415 c-14 -16 -10 -18 14 -9 9 3 16 10 16 15 0 14 -16 11 -30
-6z"/>
<path d="M2903 401 c0 -11 5 -18 9 -15 4 3 5 11 1 19 -7 21 -12 19 -10 -4z"/>
<path d="M2870 368 c0 -9 5 -20 10 -23 13 -8 13 5 0 25 -8 13 -10 13 -10 -2z"/>
<path d="M2965 360 c-3 -6 1 -7 9 -4 18 7 21 14 7 14 -6 0 -13 -4 -16 -10z"/>
<path d="M3224 359 c-3 -6 -2 -15 3 -20 5 -5 9 -1 10 11 2 22 -2 25 -13 9z"/>
<path d="M3625 320 c-3 -5 -1 -10 4 -10 6 0 11 5 11 10 0 6 -2 10 -4 10 -3 0
-8 -4 -11 -10z"/>
<path d="M3240 299 c0 -5 5 -7 10 -4 6 3 10 8 10 11 0 2 -4 4 -10 4 -5 0 -10
-5 -10 -11z"/>
<path d="M3275 300 c3 -5 8 -10 11 -10 2 0 4 5 4 10 0 6 -5 10 -11 10 -5 0 -7
-4 -4 -10z"/>
<path d="M3550 300 c0 -5 5 -10 10 -10 6 0 10 5 10 10 0 6 -4 10 -10 10 -5 0
-10 -4 -10 -10z"/>
</g>
</svg>
